<?xml version="1.0" standalone="no"?>
<!DOCTYPE svg PUBLIC "-//W3C//DTD SVG 20010904//EN"
 "http://www.w3.org/TR/2001/REC-SVG-20010904/DTD/svg10.dtd">
<svg version="1.0" xmlns="http://www.w3.org/2000/svg"
 width="928.000000pt" height="928.000000pt" viewBox="0 0 928.000000 928.000000"
 preserveAspectRatio="xMidYMid meet">
<metadata>
Created by potrace 1.14, written by Peter Selinger 2001-2017
</metadata>
<g transform="translate(0.000000,928.000000) scale(0.100000,-0.100000)"
fill="#000000" stroke="none">
<path d="M4838 8935 c-2 -3 -26 -7 -54 -9 -134 -13 -325 -57 -464 -107 -93
-34 -313 -138 -318 -151 -2 -4 -8 -8 -13 -8 -9 0 -113 -65 -135 -85 -6 -5 -22
-17 -34 -25 -286 -192 -641 -684 -700 -970 -21 -106 -20 -371 4 -520 3 -19 8
-57 11 -85 5 -58 12 -101 26 -170 5 -27 12 -66 15 -85 9 -58 64 -288 84 -350
24 -75 24 -76 -39 -140 -33 -33 -63 -60 -68 -60 -5 0 -55 91 -110 203 -99 197
-147 299 -300 637 -111 246 -260 546 -301 604 -73 105 -159 176 -213 176 -110
0 -130 -209 -44 -465 21 -65 90 -234 129 -318 20 -42 36 -81 36 -85 0 -4 6
-14 13 -20 6 -7 12 -16 12 -20 1 -4 61 -128 134 -277 201 -408 222 -452 271
-588 l28 -78 -38 -24 c-21 -13 -51 -27 -67 -31 -15 -4 -32 -9 -38 -13 -5 -3
-15 -6 -22 -7 -51 -8 -161 -79 -164 -107 -6 -50 -3 -85 7 -106 17 -33 11 -40
-34 -36 -89 8 -193 48 -317 125 -27 17 -60 35 -72 40 -13 5 -23 14 -23 20 0 5
-5 10 -11 10 -10 0 -201 124 -233 151 -6 6 -56 42 -111 82 -55 39 -106 77
-113 84 -7 7 -17 13 -21 13 -4 0 -16 8 -27 18 -10 9 -48 40 -84 67 -35 28 -69
54 -75 58 -37 29 -395 312 -415 329 -49 39 -136 92 -183 110 -105 40 -163 12
-153 -75 5 -43 70 -187 88 -195 5 -2 8 -9 8 -14 0 -6 7 -18 15 -27 8 -9 40
-47 72 -86 79 -97 206 -221 320 -313 144 -116 238 -187 368 -277 58 -40 165
-124 185 -145 3 -3 48 -41 100 -85 52 -44 97 -83 100 -86 3 -3 37 -29 75 -58
39 -30 71 -57 73 -62 2 -5 9 -9 15 -9 23 0 66 -50 77 -89 18 -67 -4 -157 -51
-214 -53 -65 -63 -67 -302 -83 -60 -3 -146 -7 -190 -7 -86 0 -328 13 -337 18
-3 1 -30 6 -60 9 -90 11 -110 14 -225 36 -107 20 -475 109 -623 150 -90 25
-151 30 -211 17 -124 -26 -142 -101 -47 -191 58 -55 71 -64 101 -78 14 -6 25
-15 25 -20 0 -4 6 -8 14 -8 8 0 16 -4 18 -8 3 -8 188 -101 243 -123 21 -8 66
-23 75 -24 3 0 10 -3 15 -7 6 -3 26 -9 46 -12 20 -3 47 -10 60 -15 14 -5 67
-16 119 -25 52 -9 104 -18 115 -20 11 -2 45 -7 75 -11 30 -4 64 -9 75 -11 30
-6 94 -15 150 -19 28 -3 75 -7 105 -10 61 -5 151 -12 285 -20 214 -14 342 -53
375 -115 18 -34 21 -136 4 -176 -16 -38 -96 -120 -126 -130 -10 -3 -18 -10
-18 -15 0 -5 -5 -9 -10 -9 -10 0 -50 -19 -325 -150 -110 -53 -179 -85 -300
-137 -44 -20 -98 -43 -120 -53 -55 -24 -228 -94 -295 -118 -30 -11 -64 -24
-75 -28 -11 -4 -22 -8 -25 -8 -19 -3 -81 -49 -94 -68 -30 -47 -28 -79 8 -112
47 -45 90 -54 234 -51 111 2 252 18 272 30 4 2 21 7 38 10 17 3 44 10 59 17
15 6 30 12 33 13 37 10 77 27 280 123 121 57 170 78 226 100 27 10 58 22 69
27 11 4 25 9 30 10 28 7 130 51 212 91 l91 46 39 -18 c182 -87 323 -182 453
-304 30 -29 80 -73 110 -99 30 -25 57 -49 60 -53 12 -15 155 -98 170 -98 9 0
20 -4 26 -9 9 -9 113 -44 171 -58 20 -5 61 -37 110 -84 158 -153 343 -272 473
-304 8 -3 41 -11 73 -20 32 -9 62 -13 67 -10 5 3 11 1 14 -4 3 -5 58 -9 122
-9 137 1 277 30 388 81 71 34 71 34 109 17 21 -10 37 -19 36 -21 -1 -2 8 -23
19 -46 43 -83 30 -177 -43 -321 -25 -50 -45 -93 -45 -97 0 -4 -6 -21 -14 -38
-13 -28 -56 -155 -62 -182 -14 -57 -44 -149 -51 -154 -5 -3 -17 -19 -27 -36
-19 -29 -215 -295 -226 -305 -5 -5 -64 -82 -180 -235 -45 -60 -96 -132 -115
-162 -5 -9 -17 -25 -25 -35 -33 -41 -132 -209 -180 -307 -76 -155 -111 -281
-115 -416 -2 -60 -1 -122 2 -137 l5 -28 2884 0 c2738 0 2885 1 2892 18 14 35
4 395 -13 422 -2 3 -6 22 -9 42 -3 21 -11 59 -17 85 -6 27 -12 55 -14 64 -21
103 -103 280 -139 301 -18 10 -229 169 -276 208 -162 133 -252 214 -371 335
-86 88 -116 125 -100 125 6 0 11 -4 11 -10 0 -5 5 -10 11 -10 6 0 32 -22 57
-48 63 -65 96 -86 171 -112 58 -19 184 -29 232 -18 95 22 179 178 165 307 -5
48 -13 98 -19 120 0 3 4 15 10 27 18 31 55 126 58 149 2 11 6 30 9 43 13 49
16 70 22 132 3 36 5 70 5 75 1 27 -12 193 -15 210 -3 11 -12 56 -21 100 -22
107 -56 212 -121 375 -46 119 -69 188 -79 240 -1 8 -6 35 -10 60 -4 25 -9 52
-10 60 -1 8 -8 49 -15 90 -20 125 -61 282 -86 330 -30 57 -38 66 -99 115 -86
68 -88 71 -80 145 4 36 8 128 10 205 5 196 -17 273 -104 363 -17 17 -35 32
-40 32 -5 0 -11 3 -13 8 -1 4 -28 20 -58 36 -100 52 -194 120 -255 182 -69 70
-74 80 -108 189 -24 77 -72 175 -106 218 -92 115 -170 175 -342 262 -71 35
-129 62 -129 59 0 -3 -15 3 -32 13 -32 18 -118 101 -118 115 0 4 18 1 40 -7
35 -13 82 -21 155 -29 58 -6 168 -40 193 -59 6 -5 12 -7 12 -3 0 4 19 -4 43
-16 74 -40 79 -41 66 -15 -21 39 -126 173 -173 220 l-46 45 85 -34 c124 -50
251 -85 323 -88 63 -3 74 8 17 17 -54 10 -139 38 -232 79 -93 40 -117 59 -65
53 15 -2 77 -6 137 -9 61 -3 121 -8 135 -11 14 -2 41 -6 60 -9 79 -10 127 -19
186 -36 l63 -17 -25 31 c-14 17 -43 54 -64 82 -116 153 -245 285 -395 403 -44
35 -82 65 -84 67 -2 2 12 -1 30 -7 31 -9 58 -14 129 -25 104 -16 444 -14 427
2 -5 5 -35 12 -82 19 -16 2 -52 9 -80 15 -27 6 -63 13 -80 16 -65 13 -259 76
-342 112 -95 41 -271 141 -292 165 -10 12 -9 18 4 29 9 7 23 20 32 28 9 8 17
14 17 12 1 -2 15 2 31 8 17 7 53 11 80 10 150 -7 190 -4 234 19 98 51 225 213
272 347 30 83 33 187 7 241 -22 47 -47 59 -118 56 -254 -8 -401 -10 -432 -6
-31 4 -42 13 -68 53 -45 70 -80 84 -199 77 -53 -3 -107 -8 -121 -11 -31 -6
-126 -15 -245 -22 -49 -2 -115 -7 -145 -9 -49 -3 -57 -1 -77 22 -13 15 -23 30
-23 34 0 4 -6 14 -13 21 -13 13 -71 108 -72 118 0 3 -12 23 -26 45 -14 22 -34
56 -45 75 -10 19 -22 37 -26 38 -5 2 -8 8 -8 13 0 6 -18 37 -40 70 -22 33 -40
63 -40 65 0 3 -4 10 -10 17 -5 7 -38 50 -72 97 -34 47 -89 112 -122 146 -57
56 -204 164 -224 164 -5 0 -15 7 -22 15 -6 8 -15 14 -18 13 -4 -1 -36 12 -72
29 -120 57 -270 109 -345 119 -16 2 -37 7 -45 10 -16 6 -21 7 -120 24 -62 11
-453 23 -462 15z"/>
</g>
</svg>
